<svg xmlns="http://www.w3.org/2000/svg" xmlns:xlink="http://www.w3.org/1999/xlink" width="500" zoomAndPan="magnify" viewBox="0 0 375 374.999991" height="500" preserveAspectRatio="xMidYMid meet" version="1.0"><defs><clipPath id="9980887ff1"><path d="M 9 10.0625 L 364.9375 10.0625 L 364.9375 366.3125 L 9 366.3125 Z M 9 10.0625 " clip-rule="nonzero"/></clipPath><clipPath id="f6104130fc"><path d="M 9 204 L 173 204 L 173 366.3125 L 9 366.3125 Z M 9 204 " clip-rule="nonzero"/></clipPath><clipPath id="a55147c02d"><path d="M 203 204 L 364.9375 204 L 364.9375 366.3125 L 203 366.3125 Z M 203 204 " clip-rule="nonzero"/></clipPath><clipPath id="60c7fe8229"><path d="M 9 10.0625 L 172 10.0625 L 172 174 L 9 174 Z M 9 10.0625 " clip-rule="nonzero"/></clipPath><clipPath id="c2429276f0"><path d="M 202 10.0625 L 364.9375 10.0625 L 364.9375 174 L 202 174 Z M 202 10.0625 " clip-rule="nonzero"/></clipPath></defs><g clip-path="url(#9980887ff1)"><path fill="#007ab9" d="M 202.816406 367.007812 C 192.828125 367.007812 182.84375 367.007812 172.398438 366.738281 C 166.308594 365.722656 160.667969 365.058594 155.050781 364.214844 C 139.308594 361.855469 124.4375 356.664062 110.144531 349.820312 C 95.871094 342.988281 82.753906 334.390625 70.867188 323.863281 C 60.019531 314.253906 50.203125 303.796875 41.769531 291.988281 C 32.777344 279.402344 25.5625 265.878906 20.199219 251.433594 C 15.554688 238.933594 12.148438 226.058594 10.75 212.722656 C 10.449219 209.859375 9.847656 207.03125 9.386719 204.1875 C 9.386719 194.203125 9.386719 184.214844 9.652344 173.769531 C 10.667969 167.683594 11.335938 162.042969 12.175781 156.425781 C 14.535156 140.679688 19.726562 125.808594 26.570312 111.515625 C 33.402344 97.246094 42 84.125 52.527344 72.242188 C 62.136719 61.394531 72.59375 51.574219 84.402344 43.140625 C 96.988281 34.148438 110.511719 26.9375 124.957031 21.570312 C 137.457031 16.925781 150.332031 13.519531 163.671875 12.121094 C 166.53125 11.820312 169.359375 11.21875 172.203125 10.757812 C 182.191406 10.757812 192.175781 10.757812 202.621094 11.027344 C 208.707031 12.039062 214.347656 12.707031 219.964844 13.546875 C 235.710938 15.90625 250.582031 21.101562 264.875 27.941406 C 279.144531 34.773438 292.265625 43.371094 304.152344 53.902344 C 315 63.511719 324.816406 73.964844 333.25 85.773438 C 342.242188 98.359375 349.457031 111.882812 354.820312 126.328125 C 359.464844 138.832031 362.871094 151.707031 364.269531 165.042969 C 364.570312 167.902344 365.171875 170.730469 365.636719 173.574219 C 365.636719 183.5625 365.636719 193.550781 365.367188 203.996094 C 364.34375 210.773438 364.039062 217.195312 362.746094 223.40625 C 358.90625 241.820312 352.71875 259.386719 343.429688 275.867188 C 333.0625 294.253906 319.863281 310.1875 303.964844 324.03125 C 290.964844 335.351562 276.671875 344.527344 260.96875 351.601562 C 245.003906 358.792969 228.417969 363.65625 211 365.644531 C 208.257812 365.957031 205.542969 366.546875 202.816406 367.007812 M 176.03125 148.558594 C 172.035156 148.558594 168.039062 148.558594 164.121094 148.558594 C 164.121094 191.535156 164.121094 233.914062 164.121094 276.402344 C 178.277344 276.402344 192.238281 276.402344 206.507812 276.402344 C 206.507812 274.84375 206.507812 273.480469 206.507812 272.113281 C 206.507812 250.324219 206.558594 228.53125 206.484375 206.742188 C 206.453125 198.300781 208.289062 190.757812 214.84375 184.785156 C 224.386719 176.078125 244.910156 176.417969 249.363281 194.175781 C 250.644531 199.285156 251.277344 204.683594 251.332031 209.957031 C 251.550781 230.816406 251.425781 251.683594 251.425781 272.546875 C 251.425781 273.789062 251.425781 275.027344 251.425781 276.425781 C 265.734375 276.425781 279.691406 276.425781 293.859375 276.425781 C 293.898438 275.589844 293.957031 274.921875 293.957031 274.253906 C 293.957031 250.375 294.234375 226.492188 293.789062 202.625 C 293.640625 194.613281 292.53125 186.382812 290.328125 178.691406 C 285.328125 161.226562 273.730469 149.851562 255.582031 146.640625 C 236.964844 143.347656 220.539062 147.382812 208.738281 163.578125 C 208.261719 164.230469 207.640625 164.777344 206.507812 166 C 206.507812 159.726562 206.507812 154.335938 206.507812 148.558594 C 196.363281 148.558594 186.542969 148.558594 176.03125 148.558594 M 136.996094 276.601562 C 138.085938 276.554688 139.175781 276.503906 140.140625 276.460938 C 140.140625 233.601562 140.140625 191.21875 140.140625 148.8125 C 125.949219 148.8125 111.996094 148.8125 97.984375 148.8125 C 97.984375 191.453125 97.984375 233.84375 97.984375 276.601562 C 110.871094 276.601562 123.59375 276.601562 136.996094 276.601562 M 139.777344 97.175781 C 134.003906 88.5625 125.597656 86.316406 115.839844 87.195312 C 104.996094 88.167969 96.453125 96.175781 95.625 106.257812 C 94.640625 118.289062 100.773438 127.542969 112.109375 130.167969 C 122.226562 132.511719 131.738281 130.984375 138.558594 122.390625 C 144.652344 114.714844 144.511719 106.175781 139.777344 97.175781 Z M 139.777344 97.175781 " fill-opacity="1" fill-rule="nonzero"/></g><g clip-path="url(#f6104130fc)"><path fill="#ffffff" d="M 9.386719 204.515625 C 9.847656 207.03125 10.449219 209.859375 10.75 212.722656 C 12.148438 226.058594 15.554688 238.933594 20.199219 251.433594 C 25.5625 265.878906 32.777344 279.402344 41.769531 291.988281 C 50.203125 303.796875 60.019531 314.253906 70.867188 323.863281 C 82.753906 334.390625 95.871094 342.988281 110.144531 349.820312 C 124.4375 356.664062 139.308594 361.855469 155.050781 364.214844 C 160.667969 365.058594 166.308594 365.722656 172.070312 366.738281 C 117.980469 367.007812 63.757812 367.007812 9.386719 367.007812 C 9.386719 312.953125 9.386719 258.898438 9.386719 204.515625 Z M 9.386719 204.515625 " fill-opacity="1" fill-rule="nonzero"/></g><g clip-path="url(#a55147c02d)"><path fill="#ffffff" d="M 203.144531 367.007812 C 205.542969 366.546875 208.257812 365.957031 211 365.644531 C 228.417969 363.65625 245.003906 358.792969 260.96875 351.601562 C 276.671875 344.527344 290.964844 335.351562 303.964844 324.03125 C 319.863281 310.1875 333.0625 294.253906 343.429688 275.867188 C 352.71875 259.386719 358.90625 241.820312 362.746094 223.40625 C 364.039062 217.195312 364.34375 210.773438 365.367188 204.320312 C 365.636719 258.410156 365.636719 312.632812 365.636719 367.007812 C 311.578125 367.007812 257.523438 367.007812 203.144531 367.007812 Z M 203.144531 367.007812 " fill-opacity="1" fill-rule="nonzero"/></g><g clip-path="url(#60c7fe8229)"><path fill="#ffffff" d="M 171.875 10.757812 C 169.359375 11.21875 166.53125 11.820312 163.671875 12.121094 C 150.332031 13.519531 137.457031 16.925781 124.957031 21.570312 C 110.511719 26.9375 96.988281 34.148438 84.402344 43.140625 C 72.59375 51.574219 62.136719 61.394531 52.527344 72.242188 C 42 84.125 33.402344 97.246094 26.570312 111.515625 C 19.726562 125.808594 14.535156 140.679688 12.175781 156.425781 C 11.335938 162.042969 10.667969 167.683594 9.652344 173.441406 C 9.386719 119.351562 9.386719 65.128906 9.386719 10.757812 C 63.441406 10.757812 117.496094 10.757812 171.875 10.757812 Z M 171.875 10.757812 " fill-opacity="1" fill-rule="nonzero"/></g><g clip-path="url(#c2429276f0)"><path fill="#ffffff" d="M 365.636719 173.25 C 365.171875 170.730469 364.570312 167.902344 364.269531 165.042969 C 362.871094 151.707031 359.464844 138.832031 354.820312 126.328125 C 349.457031 111.882812 342.242188 98.359375 333.25 85.773438 C 324.816406 73.964844 315 63.511719 304.152344 53.902344 C 292.265625 43.371094 279.144531 34.773438 264.875 27.941406 C 250.582031 21.101562 235.710938 15.90625 219.964844 13.546875 C 214.347656 12.707031 208.707031 12.039062 202.949219 11.027344 C 257.039062 10.757812 311.261719 10.757812 365.636719 10.757812 C 365.636719 64.8125 365.636719 118.867188 365.636719 173.25 Z M 365.636719 173.25 " fill-opacity="1" fill-rule="nonzero"/></g><path fill="#f0f1f2" d="M 176.378906 148.558594 C 186.542969 148.558594 196.363281 148.558594 206.507812 148.558594 C 206.507812 154.335938 206.507812 159.726562 206.507812 166 C 207.640625 164.777344 208.261719 164.230469 208.738281 163.578125 C 220.539062 147.382812 236.964844 143.347656 255.582031 146.640625 C 273.730469 149.851562 285.328125 161.226562 290.328125 178.691406 C 292.53125 186.382812 293.640625 194.613281 293.789062 202.625 C 294.234375 226.492188 293.957031 250.375 293.957031 274.253906 C 293.957031 274.921875 293.898438 275.589844 293.859375 276.425781 C 279.691406 276.425781 265.734375 276.425781 251.425781 276.425781 C 251.425781 275.027344 251.425781 273.789062 251.425781 272.546875 C 251.425781 251.683594 251.550781 230.816406 251.332031 209.957031 C 251.277344 204.683594 250.644531 199.285156 249.363281 194.175781 C 244.910156 176.417969 224.386719 176.078125 214.84375 184.785156 C 208.289062 190.757812 206.453125 198.300781 206.484375 206.742188 C 206.558594 228.53125 206.507812 250.324219 206.507812 272.113281 C 206.507812 273.480469 206.507812 274.84375 206.507812 276.402344 C 192.238281 276.402344 178.277344 276.402344 164.121094 276.402344 C 164.121094 233.914062 164.121094 191.535156 164.121094 148.558594 C 168.039062 148.558594 172.035156 148.558594 176.378906 148.558594 Z M 176.378906 148.558594 " fill-opacity="1" fill-rule="nonzero"/><path fill="#f0f2f2" d="M 136.65625 276.601562 C 123.59375 276.601562 110.871094 276.601562 97.984375 276.601562 C 97.984375 233.84375 97.984375 191.453125 97.984375 148.8125 C 111.996094 148.8125 125.949219 148.8125 140.140625 148.8125 C 140.140625 191.21875 140.140625 233.601562 140.140625 276.460938 C 139.175781 276.503906 138.085938 276.554688 136.65625 276.601562 Z M 136.65625 276.601562 " fill-opacity="1" fill-rule="nonzero"/><path fill="#eff1f2" d="M 139.917969 97.398438 C 144.511719 106.175781 144.652344 114.714844 138.558594 122.390625 C 131.738281 130.984375 122.226562 132.511719 112.109375 130.167969 C 100.773438 127.542969 94.640625 118.289062 95.625 106.257812 C 96.453125 96.175781 104.996094 88.167969 115.839844 87.195312 C 125.597656 86.316406 134.003906 88.5625 139.917969 97.398438 Z M 139.917969 97.398438 " fill-opacity="1" fill-rule="nonzero"/></svg>