<?xml version="1.0" standalone="no"?>
<!DOCTYPE svg PUBLIC "-//W3C//DTD SVG 20010904//EN"
 "http://www.w3.org/TR/2001/REC-SVG-20010904/DTD/svg10.dtd">
<svg version="1.0" xmlns="http://www.w3.org/2000/svg"
 width="1024.000000pt" height="1024.000000pt" viewBox="0 0 1024.000000 1024.000000"
 preserveAspectRatio="xMidYMid meet">

<g transform="translate(0.000000,1024.000000) scale(0.100000,-0.100000)"
fill="#000000" stroke="none">
<path d="M5107 9964 c-3 -4 -1 -18 4 -32 15 -39 13 -135 -5 -194 -45 -155
-165 -241 -336 -241 -109 0 -182 43 -325 189 -245 251 -561 283 -928 92 -239
-124 -410 -315 -489 -545 -28 -80 -30 -94 -26 -207 3 -107 7 -128 31 -181 15
-33 34 -66 42 -75 7 -8 21 -42 30 -75 10 -33 26 -74 36 -92 23 -37 45 -109 54
-178 10 -73 34 -152 66 -216 55 -111 249 -342 339 -404 39 -27 49 -29 121 -28
66 1 79 -1 79 -14 0 -30 -83 -93 -189 -144 -134 -66 -163 -88 -207 -160 -34
-57 -132 -337 -154 -442 -11 -55 -40 -340 -35 -345 2 -2 13 22 24 54 18 47 21
69 15 128 -3 39 -1 103 5 142 11 72 48 184 60 184 4 0 12 -12 18 -27 l11 -28
1 35 c3 99 60 261 118 339 25 32 106 91 127 91 7 0 10 -44 8 -132 -6 -237 24
-393 104 -550 18 -37 31 -73 29 -81 -5 -13 54 -82 87 -102 9 -5 19 -20 22 -32
6 -17 2 -22 -21 -27 -15 -4 -44 -2 -63 3 -28 8 -31 8 -16 -2 57 -37 126 -89
126 -96 0 -15 -178 -9 -275 10 -222 42 -384 48 -371 12 4 -8 -6 -54 -20 -101
-34 -115 -42 -134 -54 -127 -6 3 -10 4 -10 1 0 -2 31 -25 69 -50 82 -55 180
-157 223 -232 39 -70 48 -63 14 11 -28 61 -121 165 -199 222 -57 42 -57 38 1
168 l40 90 68 3 c75 4 250 -24 260 -40 4 -6 6 -57 5 -114 -3 -278 -84 -539
-206 -660 -83 -83 -148 -86 -270 -9 -84 52 -142 113 -215 223 -105 159 -240
470 -240 551 0 39 24 87 49 101 11 5 36 10 57 10 33 0 44 -7 98 -67 81 -90
132 -138 184 -175 72 -50 58 -25 -30 53 -114 102 -248 247 -264 288 -18 44
-18 100 2 202 12 60 15 117 11 199 l-5 115 32 27 31 28 -35 -3 c-30 -2 -37 2
-54 35 -18 32 -19 43 -10 87 10 49 9 52 -17 77 -16 15 -31 40 -34 56 -4 16 -9
27 -11 25 -3 -2 0 -26 6 -53 12 -52 7 -94 -11 -94 -6 0 -27 14 -46 30 -33 29
-36 30 -144 30 -126 0 -138 -14 -20 -23 135 -11 171 -35 196 -135 23 -90 10
-102 -59 -54 -35 24 -47 27 -121 26 -119 -2 -141 -19 -34 -27 118 -8 154 -21
184 -64 31 -47 53 -139 37 -155 -17 -17 -58 5 -76 40 -15 28 -18 29 -112 36
-53 4 -98 5 -101 2 -6 -6 55 -33 122 -53 91 -28 135 -78 135 -153 0 -36 0 -36
-51 -9 -22 11 -64 22 -92 25 -51 6 -52 5 -31 -13 15 -12 23 -34 27 -71 3 -29
13 -62 22 -74 19 -29 19 -58 0 -58 -59 0 -121 65 -159 171 -10 25 -28 59 -42
75 -20 24 -17 14 15 -56 21 -47 55 -128 75 -180 19 -52 54 -138 77 -190 22
-52 76 -186 120 -297 147 -381 271 -586 439 -731 98 -84 171 -123 241 -130 41
-4 56 0 88 21 78 52 166 187 315 487 113 225 135 275 180 403 16 42 31 77 35
77 3 0 23 -36 43 -79 68 -144 184 -240 307 -256 201 -26 214 -31 415 -153 167
-100 196 -127 196 -180 0 -45 25 -188 44 -257 43 -146 86 -334 86 -369 0 -5
-121 -131 -268 -280 -147 -149 -290 -298 -318 -331 -118 -142 -204 -271 -232
-349 -20 -53 -39 -173 -23 -146 4 8 11 39 15 69 4 30 13 69 20 86 17 39 266
350 372 464 129 138 491 479 575 541 105 78 153 95 259 94 94 -1 161 -22 267
-85 100 -60 249 -224 326 -359 62 -108 107 -274 107 -395 0 -61 -1 -65 -37
-95 -56 -46 -283 -158 -498 -245 -539 -218 -638 -280 -711 -439 -39 -86 -42
-158 -11 -302 26 -121 44 -263 51 -389 2 -38 2 9 0 105 -2 99 -12 238 -23 318
-22 157 -17 202 30 295 29 57 131 156 202 196 67 38 364 161 389 161 25 0 45
-34 155 -261 88 -182 274 -520 382 -694 21 -33 66 -114 101 -180 79 -149 126
-201 233 -256 45 -23 111 -63 147 -90 88 -64 309 -292 401 -414 73 -95 207
-308 245 -388 10 -20 21 -37 26 -37 4 0 8 -5 8 -11 0 -7 15 -44 34 -83 25 -51
38 -96 45 -158 27 -208 91 -279 228 -252 35 7 52 36 93 163 46 140 38 327 -21
481 -42 112 -69 225 -69 295 -1 95 -23 213 -53 277 -45 98 -117 144 -176 114
-16 -9 -37 -16 -45 -16 -8 0 -16 -5 -18 -10 -7 -23 -58 78 -93 183 -57 174
-90 229 -207 354 -64 68 -90 117 -112 214 -23 99 -65 400 -76 546 -22 286 -37
367 -100 557 -33 99 -60 183 -60 187 0 4 22 31 49 61 205 225 236 267 284 383
98 242 80 560 -52 888 -98 244 -210 391 -403 528 -76 53 -201 119 -228 119
-19 0 -81 37 -97 59 -34 44 -105 197 -128 277 -15 49 -37 152 -50 229 -13 77
-38 181 -55 230 -44 126 -53 161 -47 187 4 13 38 47 78 77 l72 53 116 10 c170
14 295 41 353 78 27 16 56 30 64 30 9 0 26 -24 39 -55 28 -62 38 -72 24 -23
-5 18 -9 69 -9 112 l0 79 -39 -54 c-64 -90 -154 -125 -383 -149 -151 -16 -145
-18 -95 43 23 29 53 76 66 106 50 116 53 277 7 378 -15 30 -26 60 -26 65 0 15
138 -2 260 -32 63 -16 138 -32 165 -35 156 -20 282 -92 438 -248 97 -98 171
-200 289 -401 163 -275 253 -405 303 -436 17 -10 86 -34 154 -54 68 -20 141
-46 163 -57 22 -11 37 -16 33 -10 -11 19 -63 41 -189 81 -67 22 -138 50 -156
62 -41 28 -140 171 -304 439 -133 216 -143 231 -235 343 -116 140 -247 231
-396 274 -91 27 -383 88 -460 98 -64 7 -84 22 -85 63 0 14 -16 40 -40 63 l-40
40 -62 -8 c-79 -11 -147 -11 -371 0 l-178 8 40 34 c58 50 138 154 165 217 70
157 56 391 -29 503 -14 18 -54 49 -90 69 l-64 36 -25 110 c-32 133 -36 143
-92 195 -41 39 -44 45 -44 93 0 73 -18 141 -36 134 -10 -4 -14 4 -14 29 0 24
-7 41 -25 56 -14 12 -25 26 -25 32 0 12 -35 31 -43 24z m-1733 -910 c9 -27 33
-76 52 -108 36 -57 37 -58 73 -51 49 9 55 18 42 56 -16 46 -15 65 3 50 12 -10
14 -8 9 11 -3 15 7 6 27 -24 20 -29 40 -48 51 -48 22 0 24 10 7 30 -7 8 -4 7
8 -3 25 -21 34 -22 34 -2 0 17 16 20 25 5 7 -11 48 -13 83 -4 17 5 21 11 17
25 -8 25 -3 24 42 -7 37 -25 57 -18 33 11 -18 21 -2 18 27 -5 14 -11 39 -20
56 -20 l30 0 -47 50 c-53 56 -62 79 -13 34 53 -50 188 -131 262 -159 39 -15
74 -30 78 -34 13 -12 37 -113 52 -215 l13 -91 1 80 2 80 28 -35 29 -34 -5 28
c-8 39 14 26 33 -20 13 -30 12 -38 -1 -64 -19 -36 -9 -63 12 -35 20 28 15 74
-12 130 -30 61 -30 68 -5 121 25 50 84 94 127 94 86 0 120 -170 61 -297 -32
-69 -106 -140 -154 -149 -58 -10 -69 -19 -83 -66 -24 -80 -88 -203 -137 -262
-27 -33 -95 -96 -151 -141 -185 -147 -329 -211 -420 -186 -55 15 -85 42 -209
183 -127 146 -177 218 -203 294 -20 61 -47 231 -38 240 3 3 14 1 25 -5 29 -16
84 -14 109 4 12 8 23 28 25 43 4 32 20 33 30 0 5 -20 6 -19 7 9 2 57 -63 112
-152 128 -33 6 -36 5 -30 -11 5 -14 3 -16 -11 -11 -13 5 -17 3 -13 -7 10 -25
-6 -27 -30 -4 -26 25 -31 13 -7 -20 13 -20 13 -22 0 -22 -22 0 -33 27 -41 103
-6 57 -5 67 9 67 10 0 13 -5 9 -17 -5 -13 -3 -15 13 -7 35 16 121 6 174 -21
55 -28 64 -22 24 18 -28 28 -119 53 -159 43 -24 -6 -35 8 -35 42 1 16 2 15 14
0 19 -25 66 -24 73 2 5 20 7 20 24 4 14 -13 28 -15 63 -10 25 4 48 12 52 17 3
6 -5 36 -19 67 -29 64 -42 139 -32 172 9 28 19 17 39 -46z m-29 -445 c10 -15
-1 -23 -20 -15 -9 3 -13 10 -10 16 8 13 22 13 30 -1z m-85 -35 c0 -14 5 -34
10 -45 10 -17 9 -18 -15 -7 -20 9 -25 17 -21 32 3 12 6 27 6 34 0 6 5 12 10
12 6 0 10 -12 10 -26z m2741 -190 c10 -9 23 -33 30 -53 6 -20 33 -81 61 -136
48 -97 49 -103 49 -188 0 -64 -6 -107 -21 -153 -39 -116 -157 -246 -260 -285
-63 -24 -73 -24 -65 1 6 18 3 18 -37 -5 -57 -33 -150 -63 -223 -73 l-60 -8 74
-13 c67 -12 125 -10 201 5 l25 5 -25 -22 c-59 -52 -233 -117 -323 -120 -25 -1
-21 -3 18 -10 87 -15 178 15 290 95 l50 36 5 -47 c3 -27 16 -70 29 -98 17 -36
24 -75 28 -140 8 -154 -21 -197 -154 -229 -53 -13 -79 -14 -118 -7 -119 23
-200 66 -294 155 -101 97 -214 280 -269 437 -59 169 -87 435 -66 638 l7 61 71
46 c199 127 231 134 639 129 282 -3 321 -6 338 -21z m-1545 -75 c14 -29 34
-93 44 -143 18 -93 26 -93 32 -2 3 38 4 38 46 40 70 4 73 -8 72 -227 -1 -308
-29 -541 -86 -697 -52 -144 -119 -220 -226 -256 -112 -37 -277 13 -345 104
-57 75 -66 130 -65 366 1 115 4 211 7 214 15 15 29 -25 37 -105 34 -332 48
-386 103 -411 38 -18 44 -15 12 7 -39 25 -55 50 -67 105 -7 33 -7 59 0 85 12
46 55 95 76 87 11 -4 12 -2 5 13 -13 24 -4 32 25 25 36 -9 30 12 -21 68 -48
54 -68 102 -53 131 5 10 37 53 71 95 117 145 164 235 217 412 34 115 46 140
69 140 15 0 28 -15 47 -51z m386 -312 c-8 -326 50 -552 217 -836 76 -131 154
-211 249 -259 73 -35 80 -37 176 -37 93 0 106 3 170 33 38 18 71 31 73 29 7
-8 -29 -94 -86 -201 -32 -61 -68 -136 -79 -166 -12 -30 -35 -89 -51 -131 -36
-93 -90 -180 -133 -213 -65 -49 -185 -99 -270 -112 -33 -6 -40 -4 -36 7 4 8
13 30 22 51 l15 36 -48 74 c-61 92 -127 220 -160 311 -23 62 -31 73 -71 95
l-45 25 -125 -33 c-204 -53 -202 -53 -234 -98 l-29 -41 22 -63 c49 -137 151
-295 232 -360 21 -17 39 -35 39 -40 0 -4 -22 -8 -49 -8 -42 0 -56 6 -98 39
-122 96 -237 292 -265 452 -7 40 -14 59 -22 56 -7 -3 -43 -8 -80 -12 -75 -8
-76 -9 -100 -103 -15 -58 -15 -65 0 -97 19 -40 33 -44 59 -15 29 32 40 24 70
-42 33 -76 100 -180 143 -227 18 -18 32 -36 32 -40 0 -4 -28 -4 -62 1 -186 25
-265 81 -342 243 -44 92 -72 185 -91 295 -31 187 -55 303 -66 317 -19 22 -22
7 -5 -26 18 -34 20 -51 7 -51 -26 0 -84 198 -95 323 -6 69 -5 78 11 83 10 3
34 13 54 24 l35 18 11 -72 c32 -225 190 -345 442 -334 78 3 107 9 156 31 143
66 232 217 281 477 14 77 18 156 20 420 l1 325 39 6 c22 3 46 7 54 8 14 1 15
-20 12 -162z m-2082 -733 c6 -14 14 -54 20 -91 15 -90 -1 -165 -39 -192 l-28
-20 1 157 c1 86 5 163 9 170 11 16 26 6 37 -24z m2021 -802 c32 -82 87 -190
121 -239 l28 -42 -22 -15 c-13 -8 -42 -22 -65 -30 l-42 -15 -36 40 c-48 54
-101 137 -142 225 -37 82 -40 102 -16 111 31 12 128 30 140 26 6 -3 21 -30 34
-61z m1648 -441 c24 -22 58 -65 75 -98 27 -50 39 -62 88 -86 67 -32 67 -45 1
-84 -42 -24 -48 -25 -95 -15 -71 17 -78 14 -36 -12 21 -12 47 -31 59 -42 28
-24 119 -162 119 -179 0 -7 -13 -27 -30 -44 -25 -28 -33 -31 -65 -25 -19 3
-35 3 -35 -2 0 -4 16 -25 36 -45 31 -32 60 -100 47 -113 -2 -2 -34 16 -69 41
-36 25 -67 43 -70 40 -3 -2 20 -30 50 -60 60 -60 69 -75 34 -56 -11 6 -59 14
-105 17 l-83 5 73 -74 c118 -121 207 -321 207 -465 0 -94 -11 -105 -197 -194
-168 -81 -173 -82 -173 -29 0 33 -81 270 -115 340 -55 109 -151 243 -220 307
-154 145 -380 231 -530 203 -32 -6 -60 -9 -62 -7 -5 5 124 89 216 140 168 92
330 156 401 156 16 0 20 3 13 8 -8 5 20 26 80 57 134 72 237 177 307 313 12
23 25 42 29 42 3 -1 26 -18 50 -39z m111 -2317 c52 -17 159 -93 176 -126 6
-13 21 -103 33 -201 32 -255 35 -261 146 -377 51 -53 105 -118 120 -144 34
-57 70 -164 85 -248 7 -37 19 -69 29 -78 16 -13 96 -124 141 -195 8 -13 24
-28 36 -33 30 -14 57 -78 62 -147 4 -58 3 -62 -37 -113 -38 -48 -59 -61 -73
-46 -4 3 7 27 24 54 20 32 32 65 34 97 2 26 1 39 -2 28 -9 -31 -23 -43 -55
-50 -16 -4 -34 -15 -39 -25 -10 -19 -62 -46 -133 -69 -35 -12 -39 -11 -65 16
-16 15 -49 44 -74 63 -64 48 -76 69 -52 88 16 12 16 14 2 9 -13 -5 -51 29
-145 129 -70 74 -133 145 -140 157 -23 41 -15 89 23 145 47 70 54 114 23 136
-43 30 -97 21 -184 -31 -63 -37 -92 -48 -135 -51 -50 -3 -59 0 -93 28 -50 42
-65 75 -83 175 -20 116 -36 156 -100 251 -67 100 -83 141 -84 214 -1 156 172
332 355 359 70 11 142 5 205 -15z"/>
<path d="M3743 8925 c-40 -7 -88 -23 -108 -35 -38 -24 -82 -95 -65 -105 6 -3
10 -1 10 5 0 6 4 9 9 6 5 -3 21 10 35 29 28 37 105 67 199 79 138 17 143 19
117 27 -38 11 -117 9 -197 -6z"/>
<path d="M4498 8854 c-4 -3 16 -27 43 -53 42 -41 49 -53 49 -86 0 -24 -11 -59
-31 -94 -31 -56 -31 -56 -5 -31 59 54 71 196 21 246 -22 22 -64 32 -77 18z"/>
<path d="M3892 8817 c-12 -14 -79 -16 -100 -4 -7 5 -12 2 -12 -7 0 -19 -21
-21 -39 -3 -11 10 -13 9 -8 -5 7 -21 -4 -23 -21 -6 -15 15 -16 3 -1 -24 14
-25 6 -33 -20 -18 -23 12 -28 1 -9 -18 8 -8 8 -15 -2 -27 -11 -13 -10 -18 5
-29 13 -10 16 -20 11 -40 -11 -45 16 -27 43 30 l24 49 9 -30 c4 -16 10 -39 12
-50 2 -15 12 -21 37 -23 57 -6 152 32 132 52 -4 3 -1 6 5 6 6 0 13 8 16 18 4
10 25 29 48 42 23 13 38 25 33 26 -6 1 -23 5 -38 8 -15 4 -25 11 -22 16 4 6
-7 7 -26 3 -29 -6 -31 -5 -24 18 7 23 7 23 -12 7 -26 -24 -36 -23 -28 2 7 23
2 26 -13 7z m-21 -83 c10 -13 10 -17 -1 -24 -26 -16 -54 12 -33 33 10 11 19 8
34 -9z m79 -31 c-1 -20 -27 -59 -35 -51 -8 7 15 68 26 68 5 0 9 -8 9 -17z"/>
<path d="M4456 8822 c-7 -11 34 -45 43 -36 3 2 -4 14 -16 25 -13 13 -23 17
-27 11z"/>
<path d="M4435 8750 c-2 -4 7 -17 20 -30 13 -13 29 -38 35 -56 11 -32 32 -44
44 -25 9 13 10 90 3 98 -10 10 -97 21 -102 13z"/>
<path d="M3408 8669 c12 -20 29 -54 36 -75 11 -30 15 -34 15 -16 1 31 -25 85
-52 109 -20 18 -20 18 1 -18z"/>
<path d="M3418 8364 c-19 -19 -6 -56 33 -94 46 -44 59 -49 59 -22 0 10 -18 33
-39 50 -22 18 -41 41 -43 53 -2 11 -6 17 -10 13z"/>
<path d="M3550 8321 c0 -10 24 -21 47 -21 13 0 13 3 3 15 -13 16 -50 21 -50 6z"/>
<path d="M3598 8195 c-3 -3 -24 -7 -46 -10 -23 -2 -46 -6 -52 -10 -18 -11 -11
-51 14 -74 15 -14 22 -30 19 -41 -7 -27 39 -70 75 -70 45 0 115 50 136 99 12
24 16 45 10 50 -11 9 -132 61 -143 61 -4 0 -10 -2 -13 -5z m61 -64 c11 -7 3
-12 -28 -22 -30 -9 -45 -9 -53 -1 -8 8 -2 13 23 20 44 13 42 13 58 3z m21 -75
c0 -16 -21 -26 -56 -26 -34 0 -30 14 9 27 45 15 47 15 47 -1z"/>
<path d="M5876 7927 c-25 -72 -70 -140 -124 -187 -48 -42 -39 -53 16 -20 43
26 84 92 111 180 26 83 24 104 -3 27z"/>
<path d="M4593 8025 c0 -38 2 -53 4 -32 2 20 2 52 0 70 -2 17 -4 1 -4 -38z"/>
<path d="M4580 7915 c0 -19 2 -35 4 -35 2 0 6 16 8 35 2 19 0 35 -4 35 -4 0
-8 -16 -8 -35z"/>
<path d="M4496 7402 c-35 -111 -105 -210 -159 -222 l-32 -8 36 -1 c30 -1 43 5
68 34 39 45 74 114 96 189 22 75 14 83 -9 8z"/>
<path d="M6090 5635 c128 -14 198 -30 269 -62 58 -25 71 -25 44 0 -45 39 -220
78 -348 75 -70 -1 -70 -1 35 -13z"/>
<path d="M7011 2292 c-36 -36 -51 -56 -35 -45 28 20 65 59 93 96 24 31 7 16
-58 -51z"/>
<path d="M2485 7660 c-13 -6 4 -8 50 -7 39 1 81 -2 95 -6 l25 -8 -25 15 c-27
16 -112 20 -145 6z"/>
<path d="M2383 7574 c-58 -67 -77 -99 -36 -61 32 29 98 117 89 117 -3 0 -26
-25 -53 -56z"/>
<path d="M6607 7590 c26 -46 294 -286 293 -263 -1 4 -24 26 -53 48 -29 22 -99
86 -155 143 -60 59 -96 90 -85 72z"/>
<path d="M2789 7523 c-12 -14 -12 -16 0 -8 8 4 28 12 45 16 l31 7 -31 1 c-19
1 -37 -6 -45 -16z"/>
<path d="M2872 7404 c-1 -12 -5 -37 -8 -55 -4 -28 -3 -31 6 -16 6 9 9 34 7 55
-2 20 -4 27 -5 16z"/>
<path d="M2252 7328 c-22 -69 -22 -86 1 -41 13 25 30 103 23 103 -2 0 -12 -28
-24 -62z"/>
<path d="M6920 7306 c0 -2 8 -10 18 -17 15 -13 16 -12 3 4 -13 16 -21 21 -21
13z"/>
<path d="M2236 7150 c8 -43 14 -51 14 -19 0 13 -5 31 -10 39 -7 11 -8 5 -4
-20z"/>
<path d="M7260 7006 c0 -2 8 -10 18 -17 15 -13 16 -12 3 4 -13 16 -21 21 -21
13z"/>
<path d="M7953 6907 c17 -30 33 -53 35 -52 6 5 -36 81 -52 94 -9 7 -1 -12 17
-42z"/>
<path d="M7333 6904 c8 -16 20 -60 27 -99 19 -109 28 -135 82 -216 35 -52 67
-87 102 -110 65 -44 64 -43 62 -22 -2 28 38 24 42 -4 4 -26 20 -30 28 -8 4 8
-10 42 -29 75 l-36 60 42 -6 c23 -4 52 -12 64 -20 18 -11 21 -11 19 3 -2 11
-25 22 -72 34 -82 22 -92 23 -76 7 18 -18 14 -52 -8 -76 -42 -45 -62 -30 -146
105 -36 58 -47 87 -58 155 -15 91 -29 132 -46 143 -7 4 -6 -4 3 -21z"/>
<path d="M7970 6836 c0 -3 5 -17 12 -31 14 -32 6 -40 -24 -24 l-23 12 23 -25
c23 -25 29 -48 13 -48 -22 0 -20 -40 5 -101 33 -80 35 -83 29 -28 -4 24 -7 89
-8 143 -1 69 -6 101 -14 104 -7 2 -13 1 -13 -2z m12 -151 c3 -13 1 -22 -3 -19
-9 5 -13 44 -5 44 2 0 6 -11 8 -25z"/>
<path d="M7780 6555 l35 -13 -30 -2 -30 -2 30 -13 c17 -8 44 -14 60 -15 37 0
50 -9 59 -35 7 -24 74 -95 89 -95 5 0 3 8 -5 18 -9 9 -21 34 -28 55 -13 42
-57 76 -129 102 -56 19 -102 20 -51 0z"/>
<path d="M8012 6520 c0 -14 2 -19 5 -12 2 6 2 18 0 25 -3 6 -5 1 -5 -13z"/>
<path d="M8000 6448 c0 -13 5 -30 10 -38 7 -11 10 -7 10 17 0 17 -4 35 -10 38
-6 3 -10 -4 -10 -17z"/>
<path d="M4155 3555 c0 -96 3 -175 6 -175 4 0 10 25 14 56 7 60 -4 294 -14
294 -3 0 -6 -79 -6 -175z"/>
<path d="M7551 2127 c-1 -65 36 -228 60 -267 11 -17 12 -19 -22 105 -12 44
-25 114 -29 155 l-7 75 -2 -68z"/>
<path d="M4085 1655 c49 -13 91 -22 93 -20 7 6 -129 45 -157 45 -14 -1 14 -12
64 -25z"/>
<path d="M4210 1620 c8 -5 20 -10 25 -10 6 0 3 5 -5 10 -8 5 -19 10 -25 10 -5
0 -3 -5 5 -10z"/>
<path d="M4275 1600 c11 -5 27 -9 35 -9 9 0 8 4 -5 9 -11 5 -27 9 -35 9 -9 0
-8 -4 5 -9z"/>
<path d="M3913 1465 c-7 -16 -13 -43 -15 -60 -2 -24 -8 -31 -30 -33 -15 -2
-38 4 -50 12 -43 30 -124 14 -183 -37 -31 -27 -35 -34 -23 -44 12 -10 25 -5
67 27 29 22 61 40 71 40 19 0 70 -43 70 -60 0 -14 -45 -56 -92 -86 -27 -17
-35 -28 -31 -42 15 -58 -159 -257 -388 -443 -104 -84 -137 -127 -150 -193 -13
-67 -3 -98 39 -120 148 -77 385 -107 554 -72 107 23 170 60 244 142 66 74 81
84 242 155 50 22 57 28 93 101 51 101 71 187 60 253 l-9 50 -1 -43 c-1 -52
-12 -75 -59 -124 -66 -69 -126 -42 -126 57 -1 70 21 100 108 145 l67 35 -7 45
c-10 56 -10 96 -2 185 l7 70 -14 -60 c-8 -33 -14 -92 -15 -131 0 -64 -2 -72
-24 -84 -47 -25 -166 11 -166 50 0 47 -22 67 -125 116 -86 41 -105 54 -110 76
-3 15 -1 36 5 48 6 12 10 29 8 38 -2 12 -7 8 -15 -13z"/>
<path d="M4372 1090 c0 -14 2 -19 5 -12 2 6 2 18 0 25 -3 6 -5 1 -5 -13z"/>
<path d="M3260 325 c14 -8 30 -14 35 -14 6 0 -1 6 -15 14 -14 8 -29 14 -35 14
-5 0 1 -6 15 -14z"/>
</g>
</svg>
