<?xml version="1.0" standalone="no"?>
<!DOCTYPE svg PUBLIC "-//W3C//DTD SVG 20010904//EN"
 "http://www.w3.org/TR/2001/REC-SVG-20010904/DTD/svg10.dtd">
<svg version="1.0" xmlns="http://www.w3.org/2000/svg"
 width="1024.000000pt" height="1024.000000pt" viewBox="0 0 1024.000000 1024.000000"
 preserveAspectRatio="xMidYMid meet">

<g transform="translate(0.000000,1024.000000) scale(0.100000,-0.100000)"
fill="#000000" stroke="none">
<path d="M5151 9344 c-12 -19 -21 -39 -21 -43 0 -5 -18 -31 -40 -57 -22 -27
-40 -53 -40 -59 0 -5 -11 -23 -23 -39 -26 -33 -55 -31 -64 4 -6 22 -23 26 -41
8 -9 -9 -28 6 -84 64 -58 60 -81 78 -111 83 -59 11 -87 -6 -87 -52 0 -60 -11
-69 -57 -50 -21 9 -71 30 -111 46 -40 17 -106 37 -148 46 -69 14 -79 14 -100
0 -13 -8 -24 -22 -24 -29 0 -19 -23 -26 -85 -26 -65 0 -254 -35 -269 -50 -6
-6 -10 -43 -11 -84 0 -58 4 -78 18 -94 34 -38 10 -41 -76 -11 -45 16 -113 36
-151 45 -88 18 -122 8 -175 -52 -35 -40 -41 -43 -66 -34 -33 12 -106 13 -137
1 -47 -18 -67 -48 -74 -111 -4 -33 -10 -63 -14 -65 -4 -3 -34 7 -65 21 -76 35
-147 53 -196 50 -43 -3 -84 -35 -120 -92 l-19 -32 27 -53 c16 -31 28 -73 29
-97 1 -38 -1 -42 -19 -36 -22 7 -135 -14 -143 -27 -3 -5 -16 -9 -29 -9 -13 0
-26 -4 -30 -9 -3 -5 -19 -12 -36 -16 -17 -4 -33 -13 -36 -21 -3 -8 -8 -12 -12
-9 -23 14 -247 -176 -318 -270 -23 -31 -29 -45 -22 -62 9 -24 24 -28 149 -38
75 -7 110 -18 110 -35 0 -6 -25 -61 -55 -123 -82 -167 -127 -305 -133 -404 -5
-94 6 -135 44 -152 51 -23 128 -5 181 42 30 27 35 19 18 -28 -7 -22 -27 -110
-45 -195 -25 -124 -30 -167 -25 -215 4 -33 8 -76 9 -95 2 -50 37 -52 98 -5 26
19 51 35 56 35 20 0 41 -50 40 -92 0 -24 6 -57 15 -74 19 -36 129 -148 180
-182 24 -16 36 -31 32 -39 -3 -8 -5 -17 -5 -19 0 -2 -5 -4 -12 -4 -7 0 -25
-15 -40 -32 -95 -112 -1 -316 162 -354 69 -15 110 0 191 72 l51 45 22 -23 c12
-13 33 -41 46 -63 40 -67 157 -228 193 -265 51 -53 211 -198 247 -225 17 -13
37 -30 43 -38 15 -18 220 -151 307 -199 95 -52 329 -118 419 -118 23 0 72 -6
109 -14 37 -8 93 -18 124 -21 32 -4 60 -10 62 -14 12 -19 14 -121 2 -130 -6
-5 -43 -15 -81 -21 -115 -18 -246 -68 -346 -133 -54 -35 -149 -123 -149 -138
0 -5 -18 -25 -39 -46 -68 -66 -185 -235 -224 -324 -22 -49 -77 -251 -77 -281
0 -7 -11 -49 -25 -92 -41 -131 -102 -467 -111 -611 -14 -257 -7 -368 36 -570
29 -134 43 -163 83 -167 l32 -3 22 -114 23 -115 -22 -23 c-20 -21 -21 -29 -14
-131 7 -116 23 -187 56 -239 24 -40 38 -41 74 -8 34 32 44 31 58 -1 11 -23 17
-25 50 -21 l38 5 1 -61 c0 -34 2 -73 4 -87 2 -14 6 -68 10 -122 4 -53 11 -101
14 -107 4 -6 21 -12 39 -14 18 -2 35 -7 39 -10 3 -4 20 -7 37 -8 67 -1 149
-25 156 -45 4 -10 11 -102 14 -204 4 -102 12 -232 18 -290 14 -156 20 -314 11
-325 -4 -6 -48 -21 -98 -33 -112 -29 -235 -87 -308 -147 -64 -52 -118 -137
-110 -175 l4 -25 -178 1 c-98 0 -207 3 -243 8 -74 8 -102 -2 -84 -31 9 -15 37
-17 280 -19 216 -1 276 -4 300 -16 16 -9 43 -19 59 -23 17 -5 32 -9 35 -10 43
-12 142 -26 250 -35 74 -6 194 -25 265 -41 l130 -29 -195 6 c-107 3 -213 7
-235 9 -22 2 -116 7 -210 10 -93 3 -177 8 -185 10 -8 2 -71 6 -140 10 -69 4
-127 8 -130 10 -3 1 -45 6 -95 9 -49 4 -115 11 -145 16 -30 5 -98 11 -150 15
-297 19 -450 46 -464 81 -15 39 164 55 634 59 417 3 390 2 390 19 0 8 -10 16
-22 19 -45 10 -647 8 -793 -3 -204 -15 -297 -46 -279 -93 3 -9 30 -30 60 -47
61 -34 158 -52 389 -70 143 -11 158 -12 330 -30 55 -6 134 -13 175 -16 41 -3
131 -9 200 -14 139 -11 414 -26 620 -35 74 -3 144 -8 155 -10 137 -27 1483
-27 1615 0 35 7 313 24 321 20 15 -10 295 -12 307 -3 33 28 -4 41 -198 68 -80
11 -194 27 -255 36 -78 11 -155 15 -267 12 -133 -4 -158 -2 -163 10 -3 9 -1
20 5 26 17 17 363 19 530 3 166 -16 556 -21 565 -7 14 23 -45 32 -238 34 -111
2 -251 8 -312 14 -60 7 -207 13 -325 16 l-215 4 -10 25 c-6 14 -33 49 -61 79
-28 29 -80 84 -115 121 -70 75 -160 132 -226 143 l-41 6 -7 92 c-4 50 -15 147
-26 216 -27 181 -46 457 -32 471 7 7 66 13 155 14 146 3 231 9 327 26 29 5 64
6 76 3 14 -3 24 0 27 8 9 28 9 100 -1 150 -5 29 -13 117 -16 195 l-7 141 46
34 c32 23 56 53 81 102 31 62 35 77 35 147 0 43 -5 90 -12 104 -10 23 -8 29
19 58 35 37 76 110 93 164 7 21 18 47 25 58 7 11 17 40 23 65 6 25 18 72 27
105 49 195 61 298 44 402 -7 48 -12 92 -11 96 4 13 -27 183 -49 272 -37 150
-111 378 -150 463 -114 247 -303 506 -543 744 -61 60 -124 115 -141 122 -16 7
-61 16 -100 19 -38 3 -120 14 -181 24 l-112 18 -6 49 c-3 27 -3 52 -1 56 3 4
44 11 92 14 49 4 115 13 148 21 33 8 114 26 180 41 107 24 185 49 280 88 17 7
53 20 80 30 156 54 268 103 285 126 3 3 23 19 45 36 132 96 267 226 345 329
47 61 128 216 163 310 39 105 55 169 72 285 9 58 19 122 22 143 5 36 7 37 48
37 59 0 135 28 172 63 42 40 65 89 74 159 4 31 16 76 27 100 34 73 47 205 31
318 -25 174 -56 260 -108 298 -36 26 -39 42 -11 49 11 3 20 11 20 19 0 7 6 11
14 8 9 -4 21 6 31 27 26 49 16 128 -21 174 -55 70 -73 100 -73 123 -1 13 -14
35 -30 49 -29 25 -29 27 -24 110 l5 84 -61 -2 c-33 -1 -64 0 -67 4 -3 3 1 20
10 38 61 122 10 178 -163 178 -40 0 -76 2 -79 5 -10 11 18 56 40 66 41 17 58
37 58 66 0 16 7 38 15 48 19 25 19 31 -1 51 -11 10 -26 14 -47 10 -53 -9 -200
-9 -229 -1 -16 5 -28 13 -28 18 0 6 -11 19 -25 30 -18 14 -25 29 -25 53 0 18
-7 41 -16 49 -13 13 -73 23 -107 17 -49 -8 -257 -9 -257 -1 0 5 -14 17 -32 26
-38 20 -128 112 -128 131 0 8 7 27 15 43 25 48 12 60 -64 59 -91 -2 -135 -14
-212 -60 -69 -41 -94 -47 -102 -26 -3 8 -3 49 -1 92 2 44 0 82 -6 85 -5 3 -15
23 -22 45 -10 32 -19 41 -40 43 -33 4 -71 -34 -89 -92 -18 -57 -27 -68 -49
-56 -30 16 -50 12 -50 -10 0 -22 -24 -27 -36 -8 -4 7 -3 8 4 4 7 -4 12 -1 12
9 0 9 -4 14 -9 10 -15 -9 -21 10 -30 90 -7 56 -14 80 -27 90 -31 23 -51 17
-73 -21z m40 -77 c-10 -9 -11 -8 -5 6 3 10 9 15 12 12 3 -3 0 -11 -7 -18z
m-427 -38 c40 -31 35 -53 -11 -45 -21 3 -44 6 -50 6 -8 0 -13 13 -13 30 0 25
4 30 24 30 13 0 35 -9 50 -21z m-444 1 c0 -13 -11 -13 -30 0 -12 8 -11 10 8
10 12 0 22 -4 22 -10z m1170 -14 c0 -13 -7 -26 -14 -29 -10 -4 -13 -1 -10 9 2
7 6 21 9 29 7 23 15 18 15 -9z m-1450 -66 c0 -5 -5 -10 -11 -10 -5 0 -7 5 -4
10 3 6 8 10 11 10 2 0 4 -4 4 -10z m37 4 c-3 -3 -12 -4 -19 -1 -8 3 -5 6 6 6
11 1 17 -2 13 -5z m-124 -10 c10 -10 -23 -66 -36 -61 -17 5 -21 48 -5 58 16
10 32 11 41 3z m1893 -66 c9 -14 -26 -40 -44 -33 -7 2 -10 1 -7 -4 3 -5 1 -12
-5 -16 -5 -3 -10 1 -10 9 0 9 -4 16 -10 16 -15 0 0 28 18 33 32 9 51 7 58 -5z
m-2276 -93 c0 -9 6 -12 15 -9 11 5 13 2 9 -10 -8 -22 -37 -20 -58 3 -17 18
-17 20 1 29 20 12 33 7 33 -13z m-260 -93 c0 -5 -9 -19 -20 -32 l-20 -23 0 31
c0 25 4 32 20 32 11 0 20 -4 20 -8z m-316 -116 c37 -22 38 -23 15 -29 -13 -4
-37 -7 -54 -7 -16 0 -42 -6 -57 -14 -43 -23 -66 17 -31 56 23 25 80 23 127 -6z
m-516 -828 c8 -29 5 -38 -22 -73 -17 -22 -36 -45 -42 -52 -6 -6 -28 -46 -48
-88 -21 -42 -40 -74 -43 -71 -14 14 117 316 137 316 5 0 13 -15 18 -32z m2142
-193 c0 -75 13 -108 47 -124 53 -24 110 -11 189 46 17 12 34 20 38 16 3 -4 16
3 29 14 12 12 37 24 55 28 18 4 37 15 42 25 15 29 41 51 51 45 5 -4 9 -23 9
-44 0 -59 26 -110 63 -125 86 -35 193 9 330 134 l54 50 6 -34 c8 -49 53 -113
89 -125 41 -14 90 7 120 53 28 44 39 45 61 6 13 -22 26 -30 46 -30 20 0 39
-12 68 -44 38 -42 42 -44 79 -37 44 8 98 -9 107 -33 3 -8 25 -25 47 -36 45
-23 94 -20 104 6 5 13 10 12 32 -5 15 -12 33 -21 40 -21 7 0 16 -9 19 -20 6
-20 34 -26 98 -22 18 2 30 -4 34 -15 8 -22 61 -93 82 -111 12 -10 35 -12 88
-7 l71 7 7 -33 c8 -35 38 -93 61 -120 8 -8 14 -21 14 -28 0 -6 7 -23 16 -36 9
-14 13 -25 9 -25 -4 0 -3 -6 3 -12 5 -7 13 -33 17 -58 11 -65 8 -312 -5 -389
-6 -36 -15 -95 -20 -131 -23 -163 -53 -257 -123 -390 -57 -108 -86 -148 -172
-238 -33 -35 -62 -67 -63 -73 -2 -5 -56 -47 -120 -92 -84 -60 -147 -96 -221
-126 -57 -24 -149 -64 -205 -90 -104 -49 -219 -84 -481 -147 l-150 -36 -195 6
c-107 4 -225 9 -262 12 -37 3 -71 6 -75 6 -5 0 -15 4 -23 8 -8 4 -49 11 -90
14 -132 12 -174 17 -215 27 -22 6 -83 19 -135 30 -117 24 -191 51 -254 92
-272 174 -312 204 -399 290 -43 42 -82 77 -87 77 -6 0 -10 5 -10 10 0 6 -26
38 -57 71 -49 50 -149 188 -247 339 -29 45 -76 162 -76 190 0 12 -7 47 -16 78
-26 89 -15 292 21 397 49 141 147 345 166 345 4 0 9 -13 12 -30 9 -45 44 -73
86 -72 99 4 295 97 514 243 64 44 122 79 127 79 6 0 10 -15 10 -32 0 -18 4
-38 8 -43 17 -25 67 -55 89 -55 43 0 120 50 182 119 32 36 78 86 102 111 35
38 89 104 134 166 19 26 25 14 25 -51z m1720 -75 c0 -5 -7 -10 -16 -10 -8 0
-12 5 -9 10 3 6 10 10 16 10 5 0 9 -4 9 -10z m-3955 -250 c-3 -5 -12 -10 -18
-10 -7 0 -6 4 3 10 19 12 23 12 15 0z m1173 -47 c-6 -7 -4 -13 4 -15 8 -3 6
-7 -5 -11 -19 -7 -22 9 -10 52 6 23 7 23 13 5 4 -10 3 -24 -2 -31z m3622 -280
c0 -5 -4 -14 -9 -21 -7 -11 -9 -11 -14 1 -3 8 -3 18 0 21 9 8 23 7 23 -1z
m-4670 -68 c0 -8 -4 -16 -9 -19 -5 -3 -8 5 -8 19 0 14 3 22 8 19 5 -3 9 -11 9
-19z m4614 -97 l19 -46 -32 -50 c-24 -38 -43 -55 -82 -72 -28 -11 -55 -20 -61
-18 -5 2 -12 31 -14 63 -2 33 -6 81 -9 106 -5 44 -4 47 17 47 13 0 43 4 68 10
65 15 72 12 94 -40z m-4093 -490 l58 -12 26 -59 c29 -67 31 -87 10 -87 -8 0
-27 -18 -41 -40 -14 -22 -36 -43 -48 -47 -81 -27 -201 68 -198 157 1 27 9 42
38 68 42 36 65 39 155 20z m1914 -1214 c28 -3 73 -8 101 -9 64 -3 74 -9 74
-46 0 -16 7 -46 15 -66 8 -19 15 -49 15 -65 0 -39 18 -72 33 -60 7 5 29 9 50
11 52 2 48 -17 -16 -82 -68 -70 -129 -92 -233 -84 -91 7 -148 42 -220 136 -36
47 -33 61 13 61 12 0 35 12 50 26 26 24 28 33 30 102 1 43 2 81 2 85 1 5 9 6
19 4 9 -3 40 -9 67 -13z m-305 -254 c0 -5 -5 -10 -11 -10 -5 0 -7 5 -4 10 3 6
8 10 11 10 2 0 4 -4 4 -10z m810 1 c0 -4 -9 -16 -19 -25 -19 -17 -20 -17 -30
3 -15 27 -15 28 19 29 17 0 30 -3 30 -7z m-726 -111 c-7 -7 -44 39 -44 54 1 6
12 -2 25 -19 13 -16 22 -32 19 -35z m972 -8 c-22 -5 -30 3 -21 18 5 8 11 7 22
-2 15 -12 14 -13 -1 -16z m599 -967 c8 -49 -9 -28 -20 25 -5 24 -4 32 3 25 6
-5 13 -28 17 -50z m-2098 -664 c-4 -190 -7 -347 -7 -348 0 -2 -5 -3 -11 -3 -7
0 -10 94 -8 298 2 333 6 415 22 405 6 -4 8 -121 4 -352z m1811 -308 c1 -71 5
-152 8 -180 4 -34 3 -53 -4 -53 -15 0 -20 22 -27 115 -8 113 -7 184 4 260 1 6
5 4 9 -2 4 -7 9 -70 10 -140z m-2166 2 c-6 -34 -12 -32 -12 6 0 16 4 28 9 25
4 -3 6 -17 3 -31z m423 -286 c22 -1 51 -4 65 -8 19 -5 7 -9 -49 -18 -88 -14
-102 -10 -99 27 2 26 4 27 22 14 11 -8 39 -14 61 -15z m440 1 c-8 -12 -123
-11 -131 1 -3 5 27 9 66 9 45 0 69 -4 65 -10z m185 0 c0 -5 -4 -10 -9 -10 -6
0 -13 5 -16 10 -3 6 1 10 9 10 9 0 16 -4 16 -10z m65 0 c-3 -5 -17 -10 -31
-10 -13 0 -24 5 -24 10 0 6 14 10 31 10 17 0 28 -4 24 -10z m1049 -81 c13 -11
11 -140 -4 -269 -9 -81 -9 -136 0 -240 7 -74 13 -154 15 -177 2 -24 6 -51 9
-60 3 -10 8 -36 11 -59 l5 -41 -77 -7 c-127 -10 -280 -7 -418 10 -71 9 -158
14 -193 11 -57 -4 -63 -3 -67 17 -2 11 -6 119 -9 239 -3 140 -8 223 -15 231
-17 21 -196 47 -243 36 -22 -6 -23 -10 -23 -105 -1 -55 -2 -172 -3 -259 l-2
-159 -122 7 c-68 4 -132 8 -143 10 -11 1 -45 6 -75 10 -30 4 -82 14 -114 23
-69 17 -194 19 -242 3 -19 -6 -37 -9 -42 -6 -4 2 -6 106 -5 230 1 123 -2 237
-7 253 -10 29 -43 273 -38 278 6 6 292 8 718 6 234 -2 488 0 565 3 230 10 347
18 395 25 49 8 110 3 124 -10z m180 -108 c36 -31 4 -175 -45 -202 -11 -6 -22
-9 -24 -7 -5 7 -25 160 -25 199 l0 40 38 -7 c20 -4 45 -14 56 -23z m-2049 -11
c7 -23 -3 -166 -16 -223 -13 -55 -29 -71 -29 -28 0 28 -22 61 -40 61 -5 0 -23
-14 -39 -32 -17 -18 -32 -30 -35 -27 -8 8 -26 138 -26 191 0 46 1 47 38 57 80
22 140 23 147 1z m1050 -323 c14 -73 21 -344 10 -402 -17 -93 -14 -97 70 -109
17 -2 37 -5 46 -5 13 -1 19 -19 28 -78 23 -167 46 -455 46 -588 0 -138 0 -140
-22 -143 -13 -2 -23 -8 -23 -13 0 -5 -6 -9 -12 -10 -14 0 -88 -145 -88 -170 0
-8 -5 -31 -11 -52 -9 -35 -12 -37 -42 -32 -18 3 -112 7 -211 9 -98 3 -181 7
-184 11 -10 10 -41 139 -41 175 -1 19 -6 51 -11 70 -6 19 -13 58 -17 85 -7 58
-4 745 3 757 3 4 23 5 45 2 22 -4 44 -2 51 4 15 12 122 32 157 30 14 -2 27
-11 32 -25 11 -30 37 -29 49 2 7 17 17 25 34 25 36 0 60 47 43 84 -12 26 -27
35 -27 16 0 -5 -7 -10 -15 -10 -12 0 -15 17 -16 88 0 48 -2 132 -3 187 -1 55
-1 105 1 110 2 6 26 11 53 12 48 3 49 2 55 -30z m-582 -488 c67 -25 69 -32 61
-191 -9 -180 -10 -466 -2 -552 5 -43 6 -81 4 -85 -2 -3 -25 -5 -50 -3 l-46 4
0 57 c0 31 -7 110 -15 176 -12 97 -34 470 -35 588 0 33 11 34 83 6z m863 -45
c19 -5 22 -18 33 -132 7 -70 22 -212 34 -317 11 -104 21 -221 21 -260 l1 -70
-43 -3 c-28 -2 -44 1 -46 10 -3 7 -7 65 -11 128 -3 63 -15 185 -26 270 -11 85
-23 206 -26 268 l-6 112 24 0 c13 0 33 -3 45 -6z m-298 -1118 c26 -5 42 -13
42 -22 0 -12 -37 -14 -220 -14 -202 0 -243 5 -210 25 32 20 296 27 388 11z
m793 -19 c17 -38 -4 -75 -58 -98 -143 -63 -399 -77 -496 -29 -58 29 -60 41 -4
28 23 -5 110 -8 192 -6 143 4 154 6 229 38 57 24 83 41 95 61 19 35 28 36 42
6z m-1624 -15 c68 2 123 0 123 -3 0 -14 -35 -19 -126 -19 -101 0 -176 14 -194
35 -8 10 -1 9 31 -2 31 -10 77 -13 166 -11z m875 -75 c15 -15 32 -27 38 -27 5
0 10 -4 10 -8 0 -25 -449 -35 -555 -13 -145 30 -157 38 -107 66 23 13 68 15
307 12 l280 -3 27 -27z m817 -54 c9 -16 30 -18 205 -20 202 -1 326 -10 326
-22 0 -7 -229 -29 -365 -36 -184 -10 -518 -13 -505 -5 9 5 34 11 55 13 69 8
169 38 210 63 48 28 61 30 74 7z m-614 -59 c138 -32 124 -34 -155 -28 -277 6
-434 19 -285 24 39 1 102 6 140 10 124 12 228 10 300 -6z"/>
<path d="M5700 7124 c-28 -8 -54 -72 -55 -133 0 -50 4 -61 30 -89 25 -27 37
-32 76 -32 62 0 88 28 95 101 7 71 -13 121 -60 143 -33 16 -55 18 -86 10z"/>
<path d="M4213 6962 c-6 -4 -21 -33 -33 -64 -24 -65 -18 -108 23 -169 21 -31
27 -34 67 -31 56 3 86 33 95 96 10 65 -2 101 -46 140 -38 35 -78 46 -106 28z"/>
<path d="M5060 6821 c-51 -14 -30 -104 43 -184 50 -53 78 -59 103 -22 18 28
18 28 -47 94 -28 27 -39 47 -39 68 0 16 -5 34 -12 41 -13 13 -12 13 -48 3z"/>
<path d="M5570 6140 c0 -5 -7 -10 -16 -10 -9 0 -37 -23 -62 -50 -72 -80 -228
-172 -401 -237 -136 -51 -296 -51 -411 0 -86 38 -125 69 -162 129 -26 41 -35
49 -57 46 -20 -2 -31 -14 -50 -53 -13 -27 -30 -62 -38 -77 -35 -69 0 -100 51
-44 19 20 36 36 40 36 3 0 27 -20 53 -45 26 -24 57 -49 68 -54 30 -16 79 -35
90 -36 6 0 15 -3 20 -6 55 -33 224 -35 340 -5 152 41 333 136 466 246 50 41
100 77 112 80 28 7 41 32 33 63 -5 23 -12 27 -41 27 -19 0 -35 -4 -35 -10z"/>
</g>
</svg>
